<svg width="20" height="20" viewBox="0 0 20 20" fill="none" xmlns="http://www.w3.org/2000/svg">
<path fill-rule="evenodd" clip-rule="evenodd" d="M3.95833 2.5C3.57156 2.5 3.20063 2.65365 2.92714 2.92714C2.65365 3.20063 2.5 3.57156 2.5 3.95833V11.875C2.5 12.68 3.15333 13.3333 3.95833 13.3333H5.20833C5.37409 13.3333 5.53306 13.2675 5.65027 13.1503C5.76749 13.0331 5.83333 12.8741 5.83333 12.7083C5.83333 12.5426 5.76749 12.3836 5.65027 12.2664C5.53306 12.1492 5.37409 12.0833 5.20833 12.0833H3.95833C3.90308 12.0833 3.85009 12.0614 3.81102 12.0223C3.77195 11.9832 3.75 11.9303 3.75 11.875V3.95833C3.75 3.90308 3.77195 3.85009 3.81102 3.81102C3.85009 3.77195 3.90308 3.75 3.95833 3.75H11.875C11.9303 3.75 11.9832 3.77195 12.0223 3.81102C12.0614 3.85009 12.0833 3.90308 12.0833 3.95833V5.20833C12.0833 5.37409 12.1492 5.53306 12.2664 5.65027C12.3836 5.76749 12.5426 5.83333 12.7083 5.83333C12.8741 5.83333 13.0331 5.76749 13.1503 5.65027C13.2675 5.53306 13.3333 5.37409 13.3333 5.20833V3.95833C13.3333 3.57156 13.1797 3.20063 12.9062 2.92714C12.6327 2.65365 12.2618 2.5 11.875 2.5H3.95833ZM8.125 6.66667C7.73823 6.66667 7.36729 6.82031 7.0938 7.0938C6.82031 7.36729 6.66667 7.73823 6.66667 8.125V16.0417C6.66667 16.8467 7.32 17.5 8.125 17.5H16.0417C16.4284 17.5 16.7994 17.3464 17.0729 17.0729C17.3464 16.7994 17.5 16.4284 17.5 16.0417V8.125C17.5 7.73823 17.3464 7.36729 17.0729 7.0938C16.7994 6.82031 16.4284 6.66667 16.0417 6.66667H8.125ZM7.91667 8.125C7.91667 8.06975 7.93862 8.01676 7.97769 7.97769C8.01676 7.93862 8.06975 7.91667 8.125 7.91667H16.0417C16.0969 7.91667 16.1499 7.93862 16.189 7.97769C16.2281 8.01676 16.25 8.06975 16.25 8.125V16.0417C16.25 16.0969 16.2281 16.1499 16.189 16.189C16.1499 16.2281 16.0969 16.25 16.0417 16.25H8.125C8.06975 16.25 8.01676 16.2281 7.97769 16.189C7.93862 16.1499 7.91667 16.0969 7.91667 16.0417V8.125Z" fill="#2DD2FF"/>
</svg>
