<svg width="22" height="10" viewBox="0 0 22 10" fill="none" xmlns="http://www.w3.org/2000/svg">
<path fill-rule="evenodd" clip-rule="evenodd" d="M16.7193 9.30861C16.6605 9.25047 16.6138 9.18141 16.5819 9.10537C16.5501 9.02933 16.5337 8.94782 16.5337 8.8655C16.5337 8.78317 16.5501 8.70166 16.5819 8.62562C16.6138 8.54959 16.6605 8.48052 16.7193 8.42239L20.0637 5.11032L16.7193 1.79826C16.6007 1.68074 16.534 1.52135 16.534 1.35515C16.534 1.18895 16.6007 1.02956 16.7193 0.912042C16.8379 0.794521 16.9988 0.728499 17.1666 0.728499C17.3343 0.728499 17.4952 0.794521 17.6138 0.912042L21.4043 4.66721C21.4631 4.72535 21.5098 4.79442 21.5417 4.87045C21.5735 4.94649 21.5899 5.028 21.5899 5.11032C21.5899 5.19265 21.5735 5.27416 21.5417 5.3502C21.5098 5.42623 21.4631 5.4953 21.4043 5.55343L17.6138 9.30861C17.5552 9.36689 17.4854 9.41313 17.4087 9.44469C17.3319 9.47624 17.2497 9.49248 17.1666 9.49248C17.0835 9.49248 17.0012 9.47624 16.9244 9.44469C16.8477 9.41313 16.778 9.36689 16.7193 9.30861Z" fill="#2DD2FF"/>
<path fill-rule="evenodd" clip-rule="evenodd" d="M0.61499 5.11034C0.61499 4.94436 0.721484 4.78516 0.911044 4.66779C1.1006 4.55042 1.3577 4.48448 1.62578 4.48448L19.82 4.48448C20.0881 4.48448 20.3452 4.55042 20.5348 4.66779C20.7243 4.78516 20.8308 4.94436 20.8308 5.11034C20.8308 5.27633 20.7243 5.43552 20.5348 5.5529C20.3452 5.67027 20.0881 5.73621 19.82 5.73621L1.62578 5.73621C1.3577 5.73621 1.1006 5.67027 0.911044 5.5529C0.721484 5.43552 0.61499 5.27633 0.61499 5.11034Z" fill="#2DD2FF"/>
</svg>
